<?xml version="1.0" standalone="no"?>
<!DOCTYPE svg PUBLIC "-//W3C//DTD SVG 20010904//EN"
 "http://www.w3.org/TR/2001/REC-SVG-20010904/DTD/svg10.dtd">
<svg version="1.0" xmlns="http://www.w3.org/2000/svg"
 width="150" height="150" viewBox="0 0 667.000000 260.000000"
 preserveAspectRatio="xMidYMid meet">

<g transform="translate(0.000000,260.000000) scale(0.100000,-0.100000)"
fill="#003245" stroke="none">
<path d="M1850 1320 l0 -680 465 0 465 0 0 90 0 90 -322 2 -323 3 0 210 0 210
278 3 278 2 -3 88 -3 87 -277 3 -278 2 0 190 0 190 323 2 322 3 0 90 0 90
-462 3 -463 2 0 -680z"/>
<path d="M2980 1320 l0 -680 140 0 140 0 0 437 c0 396 1 436 16 422 8 -9 133
-204 278 -435 l262 -419 142 -3 142 -3 0 681 0 681 -137 -3 -138 -3 -5 -439
-5 -440 -209 335 c-115 184 -223 357 -241 384 -17 28 -48 76 -68 108 l-37 57
-140 0 -140 0 0 -680z"/>
<path d="M4390 1320 l0 -680 140 0 140 0 0 285 0 285 273 2 272 3 3 92 3 93
-273 2 -273 3 0 200 0 200 313 3 312 2 0 95 0 95 -455 0 -455 0 0 -680z"/>
<path d="M5705 1990 c-6 -10 -105 -267 -165 -430 -21 -58 -73 -195 -115 -305
-42 -110 -94 -247 -115 -305 -36 -96 -80 -213 -108 -282 l-12 -28 149 0 148 0
54 158 54 157 230 2 c127 2 235 0 241 -5 10 -6 86 -209 109 -289 6 -23 9 -23
155 -23 l148 0 -30 78 c-16 42 -47 124 -68 182 -21 58 -53 141 -70 185 -17 44
-49 127 -70 185 -21 58 -73 195 -115 305 -42 110 -92 245 -112 300 -20 55 -41
106 -46 113 -11 15 -253 17 -262 2z m227 -625 c38 -110 70 -204 71 -210 2 -12
-323 -20 -333 -8 -4 5 23 94 60 198 37 105 76 213 85 240 l18 50 15 -35 c8
-19 46 -125 84 -235z"/>
<path d="M300 1663 l0 -308 195 195 195 195 0 112 0 113 -195 0 -195 0 0 -307z"/>
<path d="M717 1553 l-417 -418 0 -242 0 -243 195 0 195 0 0 156 0 157 42 46
c42 46 271 289 448 476 252 265 400 423 425 453 l27 32 -249 0 -248 0 -418
-417z"/>
<path d="M985 1040 l-120 -120 135 -135 135 -135 250 0 250 0 -255 255 c-140
140 -259 255 -265 255 -6 0 -64 -54 -130 -120z"/>
</g>
</svg>
